<svg width="70" height="70" viewBox="0 0 70 70" fill="none" xmlns="http://www.w3.org/2000/svg">
<g clip-path="url(#clip0_511_2)">
<rect width="70" height="70" fill="#F1F9FC"/>
<g clip-path="url(#clip1_511_2)">
<path d="M65.625 61.25H16.0417C14.1078 61.25 12.2531 60.4818 10.8857 59.1143C9.51823 57.7469 8.75 55.8922 8.75 53.9583V4.375C8.75 3.21468 8.28906 2.10188 7.46859 1.28141C6.64812 0.460936 5.53532 0 4.375 0C3.21468 0 2.10188 0.460936 1.28141 1.28141C0.460936 2.10188 0 3.21468 0 4.375L0 53.9583C0.00463216 58.2114 1.69622 62.289 4.70361 65.2964C7.711 68.3038 11.7886 69.9954 16.0417 70H65.625C66.7853 70 67.8981 69.5391 68.7186 68.7186C69.5391 67.8981 70 66.7853 70 65.625C70 64.4647 69.5391 63.3519 68.7186 62.5314C67.8981 61.7109 66.7853 61.25 65.625 61.25Z" fill="#594CDA"/>
<path d="M65.6247 11.5967H56.6239C56.0471 11.5968 55.4833 11.7679 55.0038 12.0884C54.5242 12.4089 54.1505 12.8644 53.9298 13.3973C53.7091 13.9301 53.6513 14.5165 53.7638 15.0822C53.8763 15.6479 54.154 16.1675 54.5618 16.5754L56.6997 18.7104L46.2376 29.1667C46.1022 29.3025 45.9412 29.4102 45.7641 29.4838C45.5869 29.5573 45.3969 29.5951 45.2051 29.5951C45.0133 29.5951 44.8234 29.5573 44.6462 29.4838C44.469 29.4102 44.3081 29.3025 44.1726 29.1667L43.6768 28.6708C41.7325 26.8134 39.147 25.7769 36.4581 25.7769C33.7691 25.7769 31.1836 26.8134 29.2393 28.6708L17.281 40.6292C16.8632 41.0328 16.5299 41.5155 16.3006 42.0493C16.0713 42.5831 15.9506 43.1571 15.9455 43.7381C15.9405 44.319 16.0512 44.8951 16.2712 45.4327C16.4911 45.9704 16.816 46.4589 17.2268 46.8697C17.6376 47.2804 18.126 47.6053 18.6637 47.8253C19.2014 48.0453 19.7775 48.156 20.3584 48.1509C20.9393 48.1459 21.5134 48.0252 22.0471 47.7959C22.5809 47.5666 23.0637 47.2333 23.4672 46.8154L35.4256 34.8571C35.561 34.7213 35.722 34.6135 35.8991 34.54C36.0763 34.4665 36.2662 34.4287 36.4581 34.4287C36.6499 34.4287 36.8398 34.4665 37.017 34.54C37.1942 34.6135 37.3551 34.7213 37.4906 34.8571L37.9864 35.3529C39.9314 37.209 42.5166 38.2446 45.2051 38.2446C47.8936 38.2446 50.4789 37.209 52.4239 35.3529L62.883 24.8967L65.018 27.0346C65.4258 27.4434 65.9457 27.7219 66.5118 27.835C67.078 27.9481 67.6651 27.8906 68.1985 27.6697C68.732 27.4489 69.1879 27.0747 69.5086 26.5946C69.8292 26.1144 70.0001 25.5499 69.9997 24.9725V15.9717C69.9997 14.8114 69.5387 13.6986 68.7183 12.8781C67.8978 12.0576 66.785 11.5967 65.6247 11.5967Z" fill="#594CDA"/>
</g>
</g>
<defs>
<clipPath id="clip0_511_2">
<rect width="70" height="70" fill="white"/>
</clipPath>
<clipPath id="clip1_511_2">
<rect width="70" height="70" fill="white"/>
</clipPath>
</defs>
</svg>
