<svg width="516" height="96" viewBox="0 0 516 96" fill="none" xmlns="http://www.w3.org/2000/svg">
<g clip-path="url(#clip0_1_2)">
<path d="M48.272 79.96C42.192 79.96 36.976 78.968 32.624 76.984C28.336 75 24.976 72.088 22.544 68.248C20.176 64.408 18.864 59.64 18.608 53.944C18.544 51.32 18.512 48.504 18.512 45.496C18.512 42.488 18.544 39.608 18.608 36.856C18.864 31.288 20.208 26.584 22.64 22.744C25.072 18.84 28.464 15.896 32.816 13.912C37.168 11.864 42.32 10.84 48.272 10.84C52.496 10.84 56.4 11.384 59.984 12.472C63.568 13.496 66.704 15.032 69.392 17.08C72.08 19.064 74.16 21.496 75.632 24.376C77.168 27.192 77.968 30.392 78.032 33.976C78.096 34.552 77.904 35.032 77.456 35.416C77.072 35.8 76.592 35.992 76.016 35.992H63.056C62.224 35.992 61.584 35.832 61.136 35.512C60.688 35.128 60.304 34.456 59.984 33.496C59.088 30.104 57.616 27.8 55.568 26.584C53.584 25.304 51.12 24.664 48.176 24.664C44.656 24.664 41.872 25.656 39.824 27.64C37.776 29.56 36.656 32.792 36.464 37.336C36.272 42.584 36.272 47.96 36.464 53.464C36.656 58.008 37.776 61.272 39.824 63.256C41.872 65.176 44.656 66.136 48.176 66.136C51.12 66.136 53.616 65.496 55.664 64.216C57.712 62.936 59.152 60.632 59.984 57.304C60.24 56.344 60.592 55.704 61.04 55.384C61.552 55 62.224 54.808 63.056 54.808H76.016C76.592 54.808 77.072 55 77.456 55.384C77.904 55.768 78.096 56.248 78.032 56.824C77.968 60.408 77.168 63.64 75.632 66.52C74.16 69.336 72.08 71.768 69.392 73.816C66.704 75.8 63.568 77.336 59.984 78.424C56.4 79.448 52.496 79.96 48.272 79.96ZM89.4703 79C88.7663 79 88.1903 78.776 87.7422 78.328C87.2943 77.88 87.0703 77.304 87.0703 76.6V13.24C87.0703 12.536 87.2943 11.96 87.7422 11.512C88.1903 11.064 88.7663 10.84 89.4703 10.84H100.798C101.502 10.84 102.078 11.064 102.526 11.512C102.974 11.96 103.198 12.536 103.198 13.24V76.6C103.198 77.304 102.974 77.88 102.526 78.328C102.078 78.776 101.502 79 100.798 79H89.4703ZM120.22 79C119.516 79 118.94 78.776 118.492 78.328C118.044 77.88 117.82 77.304 117.82 76.6V31.48C117.82 30.776 118.044 30.2 118.492 29.752C118.94 29.304 119.516 29.08 120.22 29.08H131.548C132.188 29.08 132.732 29.304 133.18 29.752C133.692 30.2 133.948 30.776 133.948 31.48V76.6C133.948 77.304 133.692 77.88 133.18 78.328C132.732 78.776 132.188 79 131.548 79H120.22ZM120.124 21.88C119.42 21.88 118.844 21.656 118.396 21.208C117.948 20.76 117.724 20.184 117.724 19.48V10.936C117.724 10.232 117.948 9.656 118.396 9.20799C118.844 8.696 119.42 8.44 120.124 8.44H131.548C132.252 8.44 132.828 8.696 133.276 9.20799C133.788 9.656 134.044 10.232 134.044 10.936V19.48C134.044 20.184 133.788 20.76 133.276 21.208C132.828 21.656 132.252 21.88 131.548 21.88H120.124ZM168.608 79.96C163.872 79.96 159.68 79.096 156.032 77.368C152.384 75.64 149.472 73.144 147.296 69.88C145.184 66.552 144.032 62.584 143.84 57.976C143.776 56.952 143.744 55.672 143.744 54.136C143.744 52.536 143.776 51.224 143.84 50.2C144.032 45.528 145.184 41.56 147.296 38.296C149.408 34.968 152.288 32.44 155.936 30.712C159.648 28.984 163.872 28.12 168.608 28.12C173.024 28.12 176.8 28.76 179.936 30.04C183.072 31.256 185.632 32.792 187.616 34.648C189.6 36.504 191.072 38.424 192.032 40.408C193.056 42.328 193.6 44.024 193.664 45.496C193.728 46.136 193.504 46.712 192.992 47.224C192.48 47.672 191.904 47.896 191.264 47.896H179.072C178.368 47.896 177.824 47.736 177.44 47.416C177.056 47.096 176.704 46.616 176.384 45.976C175.616 43.992 174.624 42.584 173.408 41.752C172.256 40.92 170.752 40.504 168.896 40.504C166.336 40.504 164.352 41.336 162.944 43C161.6 44.664 160.864 47.224 160.736 50.68C160.672 53.24 160.672 55.512 160.736 57.496C160.864 61.016 161.6 63.576 162.944 65.176C164.352 66.776 166.336 67.576 168.896 67.576C170.88 67.576 172.448 67.16 173.6 66.328C174.752 65.496 175.68 64.088 176.384 62.104C176.704 61.464 177.056 60.984 177.44 60.664C177.824 60.344 178.368 60.184 179.072 60.184H191.264C191.904 60.184 192.48 60.44 192.992 60.952C193.504 61.4 193.728 61.944 193.664 62.584C193.6 63.672 193.28 64.952 192.704 66.424C192.128 67.832 191.232 69.336 190.016 70.936C188.8 72.536 187.2 74.04 185.216 75.448C183.296 76.792 180.96 77.88 178.208 78.712C175.456 79.544 172.256 79.96 168.608 79.96ZM204.689 79C203.985 79 203.409 78.776 202.961 78.328C202.513 77.88 202.289 77.304 202.289 76.6V13.24C202.289 12.536 202.513 11.96 202.961 11.512C203.409 11.064 203.985 10.84 204.689 10.84H215.825C216.465 10.84 217.009 11.064 217.457 11.512C217.969 11.96 218.225 12.536 218.225 13.24V45.4L231.569 30.712C231.953 30.264 232.369 29.88 232.817 29.56C233.265 29.24 233.905 29.08 234.737 29.08H247.601C248.177 29.08 248.657 29.304 249.041 29.752C249.489 30.136 249.713 30.616 249.713 31.192C249.713 31.448 249.649 31.736 249.521 32.056C249.393 32.376 249.201 32.632 248.945 32.824L231.665 51.448L251.345 75.352C251.857 75.864 252.113 76.376 252.113 76.888C252.113 77.464 251.889 77.976 251.441 78.424C251.057 78.808 250.545 79 249.905 79H236.753C235.793 79 235.089 78.84 234.641 78.52C234.193 78.136 233.777 77.752 233.393 77.368L218.225 59.128V76.6C218.225 77.304 217.969 77.88 217.457 78.328C217.009 78.776 216.465 79 215.825 79H204.689ZM261.808 79C261.104 79 260.528 78.776 260.08 78.328C259.632 77.88 259.408 77.304 259.408 76.6V14.2C259.408 13.496 259.632 12.92 260.08 12.472C260.528 12.024 261.104 11.8 261.808 11.8H274.48C275.12 11.8 275.664 12.024 276.112 12.472C276.624 12.92 276.88 13.496 276.88 14.2V64.504H305.872C306.576 64.504 307.152 64.76 307.6 65.272C308.112 65.72 308.368 66.296 308.368 67V76.6C308.368 77.304 308.112 77.88 307.6 78.328C307.152 78.776 306.576 79 305.872 79H261.808ZM318.033 79C317.329 79 316.753 78.776 316.305 78.328C315.857 77.88 315.633 77.304 315.633 76.6V31.48C315.633 30.776 315.857 30.2 316.305 29.752C316.753 29.304 317.329 29.08 318.033 29.08H329.361C330.001 29.08 330.545 29.304 330.993 29.752C331.505 30.2 331.761 30.776 331.761 31.48V76.6C331.761 77.304 331.505 77.88 330.993 78.328C330.545 78.776 330.001 79 329.361 79H318.033ZM317.937 21.88C317.233 21.88 316.657 21.656 316.209 21.208C315.761 20.76 315.537 20.184 315.537 19.48V10.936C315.537 10.232 315.761 9.656 316.209 9.20799C316.657 8.696 317.233 8.44 317.937 8.44H329.361C330.065 8.44 330.641 8.696 331.089 9.20799C331.601 9.656 331.857 10.232 331.857 10.936V19.48C331.857 20.184 331.601 20.76 331.089 21.208C330.641 21.656 330.065 21.88 329.361 21.88H317.937ZM348.408 79C347.704 79 347.128 78.776 346.68 78.328C346.232 77.88 346.008 77.304 346.008 76.6V31.48C346.008 30.776 346.232 30.2 346.68 29.752C347.128 29.304 347.704 29.08 348.408 29.08H359.448C360.152 29.08 360.728 29.304 361.176 29.752C361.624 30.2 361.848 30.776 361.848 31.48V35.128C363.512 33.144 365.688 31.48 368.376 30.136C371.064 28.792 374.232 28.12 377.88 28.12C381.592 28.12 384.856 28.952 387.672 30.616C390.552 32.28 392.792 34.744 394.392 38.008C396.056 41.208 396.888 45.144 396.888 49.816V76.6C396.888 77.304 396.632 77.88 396.12 78.328C395.672 78.776 395.128 79 394.488 79H382.392C381.752 79 381.176 78.776 380.664 78.328C380.216 77.88 379.992 77.304 379.992 76.6V50.392C379.992 47.384 379.256 45.08 377.784 43.48C376.376 41.816 374.264 40.984 371.448 40.984C368.824 40.984 366.712 41.816 365.112 43.48C363.576 45.08 362.808 47.384 362.808 50.392V76.6C362.808 77.304 362.552 77.88 362.04 78.328C361.592 78.776 361.048 79 360.408 79H348.408ZM410.002 79C409.298 79 408.722 78.776 408.273 78.328C407.826 77.88 407.602 77.304 407.602 76.6V13.24C407.602 12.536 407.826 11.96 408.273 11.512C408.722 11.064 409.298 10.84 410.002 10.84H421.138C421.778 10.84 422.322 11.064 422.77 11.512C423.282 11.96 423.538 12.536 423.538 13.24V45.4L436.882 30.712C437.266 30.264 437.682 29.88 438.13 29.56C438.578 29.24 439.218 29.08 440.05 29.08H452.914C453.49 29.08 453.97 29.304 454.354 29.752C454.802 30.136 455.026 30.616 455.026 31.192C455.026 31.448 454.962 31.736 454.833 32.056C454.706 32.376 454.514 32.632 454.258 32.824L436.978 51.448L456.658 75.352C457.17 75.864 457.426 76.376 457.426 76.888C457.426 77.464 457.202 77.976 456.754 78.424C456.37 78.808 455.858 79 455.218 79H442.066C441.106 79 440.402 78.84 439.954 78.52C439.506 78.136 439.09 77.752 438.706 77.368L423.538 59.128V76.6C423.538 77.304 423.282 77.88 422.77 78.328C422.322 78.776 421.778 79 421.138 79H410.002ZM483.177 79.96C479.017 79.96 475.465 79.512 472.521 78.616C469.641 77.656 467.273 76.504 465.417 75.16C463.625 73.816 462.281 72.44 461.385 71.032C460.489 69.56 460.009 68.312 459.945 67.288C459.881 66.584 460.105 66.008 460.617 65.56C461.129 65.048 461.673 64.792 462.249 64.792H473.193C473.385 64.792 473.545 64.824 473.673 64.888C473.801 64.952 473.993 65.08 474.249 65.272C475.081 65.72 475.913 66.296 476.745 67C477.577 67.64 478.537 68.216 479.625 68.728C480.713 69.24 482.025 69.496 483.561 69.496C485.353 69.496 486.857 69.144 488.073 68.44C489.289 67.736 489.897 66.68 489.897 65.272C489.897 64.248 489.609 63.416 489.033 62.776C488.457 62.072 487.273 61.4 485.481 60.76C483.753 60.12 481.129 59.48 477.609 58.84C474.281 58.072 471.369 57.08 468.873 55.864C466.377 54.584 464.457 52.952 463.113 50.968C461.769 48.92 461.097 46.456 461.097 43.576C461.097 41.016 461.929 38.552 463.593 36.184C465.257 33.816 467.689 31.896 470.889 30.424C474.089 28.888 478.025 28.12 482.697 28.12C486.409 28.12 489.609 28.568 492.297 29.464C495.049 30.296 497.353 31.384 499.209 32.728C501.129 34.072 502.569 35.448 503.529 36.856C504.489 38.264 505.001 39.544 505.065 40.696C505.129 41.336 504.937 41.912 504.489 42.424C504.041 42.872 503.529 43.096 502.953 43.096H492.969C492.713 43.096 492.457 43.064 492.201 43C491.945 42.872 491.721 42.744 491.529 42.616C490.761 42.232 489.993 41.72 489.225 41.08C488.457 40.44 487.561 39.864 486.537 39.352C485.513 38.84 484.233 38.584 482.697 38.584C480.969 38.584 479.625 38.968 478.665 39.736C477.705 40.504 477.225 41.496 477.225 42.712C477.225 43.544 477.481 44.312 477.993 45.016C478.569 45.72 479.689 46.36 481.353 46.936C483.081 47.512 485.737 48.152 489.321 48.856C493.737 49.56 497.257 50.712 499.881 52.312C502.505 53.848 504.361 55.672 505.449 57.784C506.537 59.832 507.081 62.008 507.081 64.312C507.081 67.384 506.153 70.104 504.297 72.472C502.505 74.84 499.817 76.696 496.233 78.04C492.649 79.32 488.297 79.96 483.177 79.96Z" fill="#594CDA"/>
</g>
<defs>
<clipPath id="clip0_1_2">
<rect width="516" height="96" fill="white"/>
</clipPath>
</defs>
</svg>
