<svg width="70" height="70" viewBox="0 0 70 70" fill="none" xmlns="http://www.w3.org/2000/svg">
<g clip-path="url(#clip0_111_353)">
<rect width="70" height="70" fill="#F1F9FC"/>
<g clip-path="url(#clip1_111_353)">
<path d="M5.83334 35C5.83334 18.8912 18.8913 5.83331 35 5.83331C51.1088 5.83331 64.1667 18.8912 64.1667 35C64.1667 51.1087 51.1088 64.1666 35 64.1666H5.83334L14.3763 55.6237C11.6639 52.9184 9.51282 49.7037 8.04674 46.1644C6.58066 42.625 5.82845 38.8309 5.83334 35V35ZM19.915 58.3333H35C39.6149 58.3333 44.1262 56.9648 47.9633 54.4009C51.8005 51.837 54.7911 48.1929 56.5572 43.9293C58.3232 39.6656 58.7853 34.9741 57.885 30.4479C56.9847 25.9216 54.7624 21.764 51.4992 18.5008C48.2359 15.2376 44.0783 13.0153 39.5521 12.115C35.0259 11.2147 30.3343 11.6767 26.0707 13.4428C21.8071 15.2088 18.1629 18.1995 15.599 22.0367C13.0351 25.8738 11.6667 30.3851 11.6667 35C11.6667 41.2766 14.1488 47.1479 18.5004 51.4996L22.6246 55.6237L19.915 58.3333V58.3333ZM23.3333 37.9166H46.6667C46.6667 41.0108 45.4375 43.9783 43.2496 46.1662C41.0617 48.3541 38.0942 49.5833 35 49.5833C31.9058 49.5833 28.9383 48.3541 26.7504 46.1662C24.5625 43.9783 23.3333 41.0108 23.3333 37.9166V37.9166Z" fill="#594CDA"/>
</g>
</g>
<defs>
<clipPath id="clip0_111_353">
<rect width="70" height="70" fill="white"/>
</clipPath>
<clipPath id="clip1_111_353">
<rect width="70" height="70" fill="white"/>
</clipPath>
</defs>
</svg>
