<svg width="70" height="70" viewBox="0 0 70 70" fill="none" xmlns="http://www.w3.org/2000/svg">
<g clip-path="url(#clip0_511_10)">
<rect width="70" height="70" fill="#F1F9FC"/>
<path d="M34.4939 1.74C42.8939 1.74 49.0139 3.39 52.8539 6.69C56.6939 9.99 58.6139 14.64 58.6139 20.64C58.6139 23.28 58.1639 25.83 57.2639 28.29C56.4239 30.69 55.0139 32.85 53.0339 34.77C51.0539 36.69 48.4139 38.22 45.1139 39.36C41.8139 40.44 37.7639 40.98 32.9639 40.98H25.5839V66H17.4839V1.74H34.4939ZM33.7739 8.67H25.5839V34.05H32.0639C36.1439 34.05 39.5339 33.63 42.2339 32.79C44.9339 31.89 46.9439 30.48 48.2639 28.56C49.5839 26.64 50.2439 24.12 50.2439 21C50.2439 16.86 48.9239 13.77 46.2839 11.73C43.6439 9.69 39.4739 8.67 33.7739 8.67Z" fill="#594CDA"/>
<line x1="12" y1="49.5" x2="38" y2="49.5" stroke="#594CDA" stroke-width="5"/>
<path d="M12 38H20" stroke="#594CDA" stroke-width="5"/>
<g clip-path="url(#clip1_511_10)">
<path d="M50.7492 60.6626C50.0679 60.6629 49.4146 60.3921 48.9333 59.91L43.4431 54.4219C42.8523 53.8309 42.8523 52.873 43.4431 52.2821C44.034 51.6913 44.9919 51.6913 45.5828 52.2821L50.7492 57.4484L64.4172 43.7805C65.0081 43.1897 65.966 43.1897 66.5569 43.7805C67.1477 44.3714 67.1477 45.3293 66.5569 45.9202L52.5651 59.91C52.0838 60.3921 51.4305 60.6629 50.7492 60.6626Z" fill="#594CDA"/>
</g>
</g>
<defs>
<clipPath id="clip0_511_10">
<rect width="70" height="70" fill="white"/>
</clipPath>
<clipPath id="clip1_511_10">
<rect width="24" height="24" fill="white" transform="translate(43 40)"/>
</clipPath>
</defs>
</svg>
